<svg version="1.1" id="Layer_1" xmlns="http://www.w3.org/2000/svg" xmlns:xlink="http://www.w3.org/1999/xlink" x="0px" y="0px"
	 width="128px" viewBox="0 0 128 128" enable-background="new 0 0 128 128" xml:space="preserve">
<rect width="100%" height="100%" fill="white" />
<path fill="#FDFDFD" opacity="1.000000" stroke="none" 
	d="
M90.000000,129.000000 
	C60.000000,129.000000 30.500000,129.000000 1.000000,129.000000 
	C1.000000,86.333336 1.000000,43.666668 1.000000,1.000000 
	C43.666668,1.000000 86.333336,1.000000 129.000000,1.000000 
	C129.000000,43.666668 129.000000,86.333336 129.000000,129.000000 
	C116.166664,129.000000 103.333336,129.000000 90.000000,129.000000 
M86.684853,87.652550 
	C80.345009,92.008995 75.078896,97.290108 71.333305,104.963188 
	C83.057838,104.963188 93.997917,105.030006 104.934090,104.853905 
	C105.962402,104.837341 107.561363,103.477592 107.891869,102.426048 
	C112.849030,86.654587 115.375145,70.682999 110.944305,54.309589 
	C105.730087,35.041302 90.231651,20.366192 72.461067,19.294500 
	C63.271385,18.740299 54.039772,19.736671 45.565022,15.050300 
	C45.282429,14.894032 44.745049,15.198517 44.496670,15.251748 
	C46.476852,18.768055 48.559826,22.151443 50.277557,25.711086 
	C50.786938,26.766672 50.608940,28.445763 50.168331,29.622961 
	C45.616840,41.783333 40.946880,53.899364 36.290287,66.079010 
	C38.729317,67.171204 40.078617,67.778755 41.430611,68.380264 
	C47.495399,71.078537 47.693176,70.768784 51.186028,64.941147 
	C52.783058,62.276577 55.318115,58.746876 57.862175,58.342464 
	C65.779861,57.083870 70.656532,53.317211 72.325020,44.795948 
	C75.724609,51.696140 73.358398,56.967487 69.846321,61.992420 
	C64.421249,69.754379 58.399734,77.156822 53.618214,85.291885 
	C50.195065,91.115883 48.387291,97.889336 45.573296,104.956116 
	C52.118511,104.956116 57.123665,105.197929 62.082520,104.824654 
	C63.812649,104.694420 66.018867,103.451393 66.997688,102.023987 
	C72.109329,94.569786 78.264549,88.501663 86.949799,86.176620 
	C86.978569,86.479507 87.007347,86.782402 86.684853,87.652550 
M25.021471,54.508831 
	C28.721540,67.395195 26.295992,80.040726 23.461014,92.652863 
	C22.442221,97.185242 24.674196,100.632462 29.365860,100.904335 
	C33.493904,101.143539 37.646770,100.954353 41.990353,100.954353 
	C42.825180,97.965424 43.611172,95.151344 44.513287,91.921509 
	C39.522053,91.921509 35.032658,92.127609 30.587872,91.773605 
	C29.504650,91.687332 27.510830,89.456657 27.721336,88.727440 
	C31.251650,76.498154 30.761690,64.237152 28.259989,51.946083 
	C37.296490,50.880688 38.595432,49.482697 39.706348,39.889694 
	C26.049358,38.440712 21.415907,42.729362 25.021471,54.508831 
M11.120399,68.541580 
	C11.475118,74.006195 11.563467,79.509995 12.357736,84.909958 
	C12.576950,86.400330 14.860554,88.577812 16.267727,88.632935 
	C17.770979,88.691818 20.311293,86.900368 20.755550,85.422592 
	C23.933016,74.853096 23.959009,64.116333 20.761295,53.546764 
	C20.318707,52.083847 17.732563,50.314358 16.238302,50.401119 
	C14.826178,50.483105 12.669261,52.655407 12.373171,54.201847 
	C11.535361,58.577614 11.483356,63.103832 11.120399,68.541580 
M42.232208,87.123405 
	C43.862930,86.705429 46.264965,86.819893 46.986656,85.774414 
	C49.663128,81.897141 51.785927,77.637665 54.116703,73.521759 
	C54.075157,72.936371 54.033615,72.350990 53.992069,71.765602 
	C46.347725,78.811455 40.177032,72.194588 33.501221,70.559929 
	C33.027756,76.374596 32.603855,81.580627 32.152534,87.123337 
	C35.384537,87.123337 38.344398,87.123337 42.232208,87.123405 
z"/>
<path fill="#070707" opacity="1.000000" stroke="none" 
	d="
M86.876808,85.266754 
	C78.264549,88.501663 72.109329,94.569786 66.997688,102.023987 
	C66.018867,103.451393 63.812649,104.694420 62.082520,104.824654 
	C57.123665,105.197929 52.118511,104.956116 45.573296,104.956116 
	C48.387291,97.889336 50.195065,91.115883 53.618214,85.291885 
	C58.399734,77.156822 64.421249,69.754379 69.846321,61.992420 
	C73.358398,56.967487 75.724609,51.696140 72.325020,44.795948 
	C70.656532,53.317211 65.779861,57.083870 57.862175,58.342464 
	C55.318115,58.746876 52.783058,62.276577 51.186028,64.941147 
	C47.693176,70.768784 47.495399,71.078537 41.430611,68.380264 
	C40.078617,67.778755 38.729317,67.171204 36.290287,66.079010 
	C40.946880,53.899364 45.616840,41.783333 50.168331,29.622961 
	C50.608940,28.445763 50.786938,26.766672 50.277557,25.711086 
	C48.559826,22.151443 46.476852,18.768055 44.496670,15.251748 
	C44.745049,15.198517 45.282429,14.894032 45.565022,15.050300 
	C54.039772,19.736671 63.271385,18.740299 72.461067,19.294500 
	C90.231651,20.366192 105.730087,35.041302 110.944305,54.309589 
	C115.375145,70.682999 112.849030,86.654587 107.891869,102.426048 
	C107.561363,103.477592 105.962402,104.837341 104.934090,104.853905 
	C93.997917,105.030006 83.057838,104.963188 71.333305,104.963188 
	C75.078896,97.290108 80.345009,92.008995 87.204819,87.313812 
	C88.843094,86.213165 89.961418,85.451256 91.079742,84.689339 
	C90.935875,84.404373 90.792015,84.119408 90.648148,83.834435 
	C89.391037,84.311874 88.133919,84.789314 86.876808,85.266754 
M52.564552,44.275429 
	C54.320953,42.317810 56.077354,40.360191 57.833755,38.402576 
	C57.224392,37.860943 56.615025,37.319313 56.005661,36.777683 
	C54.057632,38.981724 52.109604,41.185768 50.161575,43.389812 
	C50.761108,43.838650 51.360641,44.287491 52.564552,44.275429 
z"/>
<path fill="#100F10" opacity="1.000000" stroke="none" 
	d="
M24.927559,54.082233 
	C21.415907,42.729362 26.049358,38.440712 39.706348,39.889694 
	C38.595432,49.482697 37.296490,50.880688 28.259989,51.946083 
	C30.761690,64.237152 31.251650,76.498154 27.721336,88.727440 
	C27.510830,89.456657 29.504650,91.687332 30.587872,91.773605 
	C35.032658,92.127609 39.522053,91.921509 44.513287,91.921509 
	C43.611172,95.151344 42.825180,97.965424 41.990353,100.954353 
	C37.646770,100.954353 33.493904,101.143539 29.365860,100.904335 
	C24.674196,100.632462 22.442221,97.185242 23.461014,92.652863 
	C26.295992,80.040726 28.721540,67.395195 24.927559,54.082233 
z"/>
<path fill="#100E0F" opacity="1.000000" stroke="none" 
	d="
M11.121101,68.056183 
	C11.483356,63.103832 11.535361,58.577614 12.373171,54.201847 
	C12.669261,52.655407 14.826178,50.483105 16.238302,50.401119 
	C17.732563,50.314358 20.318707,52.083847 20.761295,53.546764 
	C23.959009,64.116333 23.933016,74.853096 20.755550,85.422592 
	C20.311293,86.900368 17.770979,88.691818 16.267727,88.632935 
	C14.860554,88.577812 12.576950,86.400330 12.357736,84.909958 
	C11.563467,79.509995 11.475118,74.006195 11.121101,68.056183 
z"/>
<path fill="#0C0C0C" opacity="1.000000" stroke="none" 
	d="
M41.768234,87.123367 
	C38.344398,87.123337 35.384537,87.123337 32.152534,87.123337 
	C32.603855,81.580627 33.027756,76.374596 33.501221,70.559929 
	C40.177032,72.194588 46.347725,78.811455 53.992069,71.765602 
	C54.033615,72.350990 54.075157,72.936371 54.116703,73.521759 
	C51.785927,77.637665 49.663128,81.897141 46.986656,85.774414 
	C46.264965,86.819893 43.862930,86.705429 41.768234,87.123367 
z"/>
<path fill="#EBEAEB" opacity="1.000000" stroke="none" 
	d="
M86.913300,85.721687 
	C88.133919,84.789314 89.391037,84.311874 90.648148,83.834435 
	C90.792015,84.119408 90.935875,84.404373 91.079742,84.689339 
	C89.961418,85.451256 88.843094,86.213165 87.380447,87.030190 
	C87.007347,86.782402 86.978569,86.479507 86.913300,85.721687 
z"/>
<path fill="#EAE9E9" opacity="1.000000" stroke="none" 
	d="
M52.262363,44.505878 
	C51.360641,44.287491 50.761108,43.838650 50.161575,43.389809 
	C52.109604,41.185768 54.057632,38.981724 56.005661,36.777683 
	C56.615025,37.319313 57.224392,37.860943 57.833755,38.402576 
	C56.077354,40.360191 54.320953,42.317810 52.262363,44.505878 
z"/>
</svg>