<?xml version="1.0" standalone="no"?>
<!DOCTYPE svg PUBLIC "-//W3C//DTD SVG 20010904//EN"
 "http://www.w3.org/TR/2001/REC-SVG-20010904/DTD/svg10.dtd">
<svg version="1.0" xmlns="http://www.w3.org/2000/svg"
 width="1024.000000pt" height="1024.000000pt" viewBox="0 0 1024.000000 1024.000000"
 preserveAspectRatio="xMidYMid meet">
<metadata>
Created by potrace 1.14, written by Peter Selinger 2001-2017
</metadata>
<g transform="translate(0.000000,1024.000000) scale(0.100000,-0.100000)"
fill="#000000" stroke="none">
<path d="M3897 8183 c4 -10 53 -99 109 -198 56 -99 161 -288 234 -420 73 -132
139 -252 148 -267 15 -26 15 -28 -29 -85 -66 -85 -236 -318 -247 -339 -5 -11
-15 -44 -22 -74 -27 -119 -69 -251 -418 -1315 -215 -653 -238 -726 -246 -775
l-7 -35 193 -84 c106 -46 238 -103 293 -126 l100 -42 133 38 c73 21 137 41
143 44 5 4 9 16 9 28 0 43 31 143 69 222 45 93 123 205 253 361 l93 112 75 6
c120 10 277 36 347 57 366 113 613 415 641 786 l7 85 38 -63 c117 -198 129
-479 31 -733 -80 -207 -189 -370 -570 -851 -248 -313 -311 -398 -458 -619
-263 -392 -444 -749 -590 -1159 -78 -221 -166 -550 -166 -624 l0 -23 639 0
639 0 43 78 c193 352 509 709 834 943 253 182 521 312 832 404 127 38 303 78
311 71 2 -3 -24 -18 -59 -32 -181 -77 -454 -233 -619 -352 -391 -286 -741
-676 -916 -1024 l-44 -88 1208 0 1208 0 41 123 c55 160 112 360 167 583 158
641 224 1227 197 1748 -15 287 -32 430 -76 650 -128 630 -382 1177 -755 1622
-95 114 -303 322 -400 400 -454 367 -977 587 -1530 645 -236 25 -663 -1 -867
-53 -33 -8 -51 -7 -76 3 -40 16 -662 273 -820 340 -65 27 -120 49 -122 49 -3
0 -1 -8 2 -17z m879 -1575 c-19 -174 -71 -286 -158 -343 -56 -37 -348 -215
-353 -215 -3 0 4 19 14 43 9 23 37 98 61 167 52 148 70 170 207 258 54 35 127
83 163 107 36 24 67 43 69 44 2 1 0 -27 -3 -61z"/>
<path d="M2940 6480 c-112 -20 -207 -78 -275 -171 -65 -88 -85 -162 -85 -313
0 -66 -3 -145 -6 -173 -7 -52 -7 -53 -40 -53 l-33 0 39 -82 c157 -336 228
-905 190 -1528 -23 -378 -80 -660 -181 -894 -22 -49 -39 -91 -39 -93 0 -2 14
-3 30 -3 l30 0 0 -78 c0 -65 -4 -83 -24 -113 -66 -97 -76 -263 -21 -375 56
-115 180 -211 304 -234 31 -6 238 -10 495 -10 l441 0 44 163 c24 89 65 226 90
305 l46 142 -538 0 c-590 0 -580 -1 -612 60 -26 49 -18 123 25 256 106 326
159 806 147 1324 -11 426 -65 808 -146 1021 l-19 49 291 2 290 3 53 150 c28
83 89 258 134 390 45 132 85 245 87 252 4 10 -64 13 -333 12 -187 -1 -359 -5
-384 -9z m364 -481 c32 -38 33 -63 1 -94 -24 -25 -27 -25 -195 -25 -168 0
-171 0 -195 25 -14 13 -25 36 -25 50 0 14 11 37 25 50 24 25 27 25 194 25
l169 0 26 -31z"/>
<path d="M1864 5751 c-69 -42 -119 -253 -156 -656 -21 -223 -17 -1092 6 -1315
33 -336 72 -505 131 -568 l34 -37 159 0 c135 1 163 4 186 19 117 76 224 526
256 1072 36 628 -107 1434 -266 1494 -14 6 -91 10 -172 10 -126 0 -151 -3
-178 -19z m172 -900 c33 -232 23 -672 -18 -901 l-12 -65 -12 85 c-7 47 -18
182 -24 300 -13 222 -5 468 22 675 14 107 18 97 44 -94z"/>
<path d="M3126 5362 c-2 -1 5 -62 15 -135 10 -72 18 -139 19 -147 0 -8 20 44
44 115 24 72 47 137 51 147 6 14 -3 17 -60 20 -37 1 -68 2 -69 0z"/>
<path d="M3171 4258 c-2 -257 -24 -509 -66 -781 -14 -87 -25 -167 -25 -178 0
-18 14 -19 493 -18 l492 0 55 117 c121 255 385 684 533 865 21 26 34 47 28 47
-15 0 -177 -57 -356 -125 -82 -31 -187 -70 -233 -86 l-83 -30 -162 70 c-89 38
-225 98 -302 131 -136 61 -368 160 -371 160 -1 0 -2 -78 -3 -172z"/>
</g>
</svg>
